<svg id="Capa_1" data-name="Capa 1" xmlns="http://www.w3.org/2000/svg" viewBox="0 0 1183 1183"><defs><style>.cls-1{fill:#ffc300;}.cls-2{fill:#51be00;}.cls-3{fill:#003899;}.cls-4{fill:#fff;}.cls-5{fill:#f70;}</style></defs><path class="cls-1" d="M601.55,8.52,600,600,88.45,302.87C190.91,126.83,381.64,8.5,600,8.5,600.52,8.5,601,8.5,601.55,8.52Z" transform="translate(-8.5 -8.5)"/><path class="cls-2" d="M1113.12,305.54,600,600,601.55,8.52C820.38,9.07,1011.26,128.45,1113.12,305.54Z" transform="translate(-8.5 -8.5)"/><path class="cls-3" d="M1191.5,600a588.7,588.7,0,0,1-80,297.13L600,600l513.12-294.46A588.82,588.82,0,0,1,1191.5,600Z" transform="translate(-8.5 -8.5)"/><path class="cls-1" d="M1111.55,897.13c-102.46,176-293.19,294.37-511.55,294.37-.52,0-1,0-1.55,0L600,600Z" transform="translate(-8.5 -8.5)"/><path class="cls-2" d="M600,600l-1.55,591.48c-218.83-.55-409.71-119.93-511.57-297Z" transform="translate(-8.5 -8.5)"/><path class="cls-3" d="M600,600,86.88,894.46a592.21,592.21,0,0,1,1.57-591.59Z" transform="translate(-8.5 -8.5)"/><path class="cls-4" d="M827.19,611.36c-6.2,127.17-110.71,225.36-233,218.92-125.74-6.62-224.3-111.09-218.62-231.72,5.91-125.64,112.34-225.69,233.65-219.64C734.08,385.14,833.07,490.69,827.19,611.36Zm0,0c-6.2,127.17-110.71,225.36-233,218.92-125.74-6.62-224.3-111.09-218.62-231.72,5.91-125.64,112.34-225.69,233.65-219.64C734.08,385.14,833.07,490.69,827.19,611.36ZM601.37,731.55c34.77,0,69.57.57,104.31-.53,6.28-.2,17.17-6.69,17.67-11.19,1.93-17.5,2.29-35.61,0-53.05-3.89-29.16-27.86-50.82-56.4-51.4q-64.9-1.3-129.87,0c-27.32.52-49.06,18.45-54,45.31-3.14,17.23-1.94,35.22-3.12,52.84-.95,14.19,5.92,18.41,19.21,18.2C533.23,731.18,567.3,731.54,601.37,731.55ZM670,526.87c0-38.18-30.67-69.37-68.24-69.38-37,0-69.37,32.18-69.53,69.14s31.86,68.92,69.27,69C639.75,595.76,670,565.39,670,526.87Z" transform="translate(-8.5 -8.5)"/><path class="cls-5" d="M813.65,611c-5.82,119.54-104.07,211.85-219,205.79-118.2-6.22-210.85-104.43-205.52-217.83,5.56-118.11,105.61-212.17,219.65-206.48C726.13,398.3,819.18,497.52,813.65,611Zm0,0c-5.82,119.54-104.07,211.85-219,205.79-118.2-6.22-210.85-104.43-205.52-217.83,5.56-118.11,105.61-212.17,219.65-206.48C726.13,398.3,819.18,497.52,813.65,611Zm-212.28,113c32.69,0,65.4.53,98.06-.49,5.91-.19,16.14-6.3,16.61-10.53,1.81-16.45,2.15-33.47,0-49.86-3.66-27.42-26.19-47.78-53-48.32q-61-1.23-122.08,0c-25.69.48-46.12,17.34-50.73,42.59-2.95,16.19-1.83,33.11-2.93,49.68-.89,13.33,5.57,17.3,18.05,17.1C537.31,723.6,569.34,723.93,601.37,723.94ZM665.9,531.53c0-35.89-28.83-65.22-64.16-65.22-34.79,0-65.21,30.25-65.36,65s30,64.78,65.12,64.88C637.45,596.29,665.88,567.75,665.9,531.53Z" transform="translate(-8.5 -8.5)"/><path class="cls-4" d="M601.37,731.54c-34.07,0-68.14-.36-102.2.18-13.29.21-20.16-4-19.21-18.2,1.18-17.62,0-35.61,3.12-52.84,4.9-26.86,26.64-44.79,54-45.31q64.92-1.23,129.87,0c28.54.58,52.51,22.24,56.4,51.4,2.33,17.44,2,35.55,0,53.05-.5,4.5-11.39,11-17.67,11.19C670.94,732.12,636.14,731.55,601.37,731.54Z" transform="translate(-8.5 -8.5)"/><path class="cls-4" d="M670,526.87c0,38.52-30.26,68.89-68.5,68.78-37.41-.1-69.43-32-69.27-69s32.52-69.14,69.53-69.14C639.34,457.5,670,488.69,670,526.87Z" transform="translate(-8.5 -8.5)"/><path d="M670.08,561.48c-4.49-1-4.9-1.54-4.9-6.14q0-24.6,0-49.2c0-3.68,1.24-4.78,4.94-4.92,4.19-.15,8.13.26,11.29,3.84-3.29-28.29-28.83-64.06-72.69-68-45.65-4.06-81.4,29-87.34,67.54.2,0,.45,0,.54-.07,3.57-3.79,8.18-3.57,12.75-3.19,2,.17,3,2,3,4.58q0,19,0,38.06c0,4.21,0,8.41,0,12.62,0,3.22-1.41,4.45-4.64,4.59-4.42.19-8.56-.23-11.7-3.88a4.13,4.13,0,0,0-1.67-.8A12.34,12.34,0,0,1,511.43,545c-.08-9.25,0-18.5,0-27.76a4.56,4.56,0,0,1,.2-1.86c2.41-5.11,2.33-10.76,3.5-16.13a88.38,88.38,0,0,1,173.71,5.51c.49,3.17.61,6.37,2.1,9.35a9.16,9.16,0,0,1,.58,3.9q.06,13.14,0,26.29c0,6-3,10.13-8.61,12.42-1.43.59-2.49,2.26-3.92,2.63-3.35.86-3.65,3.42-4.3,6.07-4.55,18.59-14.81,33.2-30.89,43.64a5.15,5.15,0,0,0-2.74,3.6,5.84,5.84,0,0,1-3.92,4.33c-4.68,1.88-9.35,3.78-14,5.6-4.06,1.57-7.84.11-9.28-3.5s.31-7.41,4.42-9.05c4.49-1.8,9-3.55,13.46-5.4a7.16,7.16,0,0,1,6.64.36,2.53,2.53,0,0,0,2.18-.07C656,595,665.74,581,669.94,563.1A9.85,9.85,0,0,0,670.08,561.48Z" transform="translate(-8.5 -8.5)"/><path class="cls-4" d="M1064.06,550c3.27,0,6.4,0,9.52,0a21,21,0,0,1,20,15.27,24.37,24.37,0,0,1,.8,6.43q.08,43.15,0,86.32A21.06,21.06,0,0,1,1073.55,679c-3.08,0-6.16,0-9.49,0v1.64c0,4.35,0,8.7,0,13a7.42,7.42,0,0,1-4.26,7.27c-3,1.49-5.75.9-8.35-1.06q-13.26-10-26.58-19.91a5.2,5.2,0,0,0-2.86-1c-11.22-.06-22.45,0-33.68,0a7,7,0,0,1-6.74-3.81,7.76,7.76,0,0,1,.29-8.08,6.8,6.8,0,0,1,6.14-3.26c9.3,0,18.61,0,27.91,0,3,0,6.07.07,9.1,0a9.67,9.67,0,0,1,6.46,2.11c5.35,4.07,10.75,8.08,16.13,12.1.31.24.66.45,1.26.86,0-2.06,0-3.89,0-5.72a17.22,17.22,0,0,1,.28-3.6,7.32,7.32,0,0,1,7.27-5.71c5.41,0,10.82,0,16.23,0,4.32,0,6.56-2.22,6.56-6.51V571.76c0-4.44-2.15-6.59-6.6-6.6h-7.88c-.16,0-.31,0-.72.07,0,2,0,4,0,6,0,18.71,0,37.43,0,56.14a21,21,0,0,1-21.4,21.27c-19.31,0-38.63,0-58,0a4.83,4.83,0,0,0-2.73.89c-9,6.65-17.9,13.37-26.85,20.05a7.38,7.38,0,0,1-8.77.58,7.27,7.27,0,0,1-3.63-6.43c-.06-4.45,0-8.9,0-13.35v-1.78c-3.22,0-6.29,0-9.36,0a21,21,0,0,1-20.22-15.55,22.73,22.73,0,0,1-.75-5.69q-.06-43.68,0-87.38c0-9.6,8.09-18.79,17.64-20a37.05,37.05,0,0,1,4.83-.28q22.68,0,45.36,0,31.32,0,62.65,0a20.76,20.76,0,0,1,20.69,16.64c.64,3.07.41,6.32.54,9.5C1064.1,547.14,1064.06,548.49,1064.06,550Zm-106.2,98.49c.62-.41,1-.64,1.35-.9q8.19-6.14,16.38-12.27a9.16,9.16,0,0,1,5.77-1.88q30.33,0,60.68,0c4.71,0,6.84-2.12,6.84-6.83q0-42.63,0-85.26c0-4.28-2.23-6.53-6.54-6.53q-17.3,0-34.58,0-36.94,0-73.88,0c-4.11,0-6.38,2.27-6.38,6.36V627c0,4.11,2.29,6.4,6.37,6.4H950a7.54,7.54,0,0,1,7.9,7.91C957.88,643.63,957.86,645.9,957.86,648.48Z" transform="translate(-8.5 -8.5)"/><path class="cls-4" d="M988.23,557.56h37.61c4.65,0,8.12,3.27,8.11,7.6s-3.54,7.58-8.15,7.58H950.43a7.65,7.65,0,0,1-7.72-5.82,7.46,7.46,0,0,1,4.38-8.7,9.13,9.13,0,0,1,3.53-.63C963.15,557.54,975.69,557.56,988.23,557.56Z" transform="translate(-8.5 -8.5)"/><path class="cls-4" d="M988.25,587.92c12.53,0,25.07.08,37.6,0a7.78,7.78,0,0,1,8.08,7.66c.09,4.32-3.49,7.57-8.14,7.56-12.08,0-24.17-.06-36.25-.06-13.09,0-26.19.06-39.28.05a7.56,7.56,0,0,1-6.94-11,7.31,7.31,0,0,1,7-4.19Z" transform="translate(-8.5 -8.5)"/><path class="cls-4" d="M881.29,1006.22,903,994.08l3.13-1.75a2.42,2.42,0,0,0,.86-3.27l-5.53-9.53-12.86-22.18L874,932.18l-10.92-18.82c-.77-1.33-1.51-2.69-2.32-4a4.24,4.24,0,0,0-2.61-1.7l-14-4.79-24.6-8.41-27.82-9.52-24-8.21L755,872.36l-.58-.2a2.42,2.42,0,0,0-2.94,1.67l-2.4,9.46-5.89,23.19-7.44,29.31-7,27.39L724.22,981c-.25,1-.54,1.94-.74,2.92-.29,1.43.71,2.7,1.39,3.89l9.54,16.76,14.53,25.51,14,24.57,7.89,13.87.38.66a2.42,2.42,0,0,0,3.27.85l7.54-4.38,18.24-10.59,22-12.76,19.09-11.1c3.08-1.78,6.26-3.46,9.26-5.37l.13-.08a2.44,2.44,0,0,0,.86-3.27l-7.28-13-11.56-20.65L830,984.05a2.44,2.44,0,0,0-3.28-.86l-30.36,17-4.37,2.45c-2.69,1.5-.28,5.64,2.41,4.13l30.37-17,4.37-2.45-3.27-.86,7.28,13,11.55,20.65,2.69,4.79.86-3.27-7.55,4.38-18.23,10.59-22,12.76-19.09,11.1-6.26,3.64a34.13,34.13,0,0,0-3,1.73l-.14.08,3.28.86-4.73-8.3-11.35-19.93-13.66-24L733.71,993.7l-3.93-6.91c-.61-1.06-1.14-2.24-1.85-3.25,0,0,0-.09-.08-.14l.24,1.84,2.78-10.93,6.66-26.26,8.11-31.91,7-27.48,2.3-9.06c.36-1.41.87-2.86,1.1-4.3a1.05,1.05,0,0,1,0-.19l-2.95,1.67,10.45,3.57,25,8.55,30.32,10.37L845,908.2l8.65,3c1.36.47,2.72,1.05,4.11,1.41l.18.06-1.43-1.1,4.62,8,11,19,13.41,23.13,11.56,19.92,3.84,6.63a35.68,35.68,0,0,0,1.81,3.12l.08.14.86-3.27L882,1000.33l-3.13,1.75c-2.69,1.51-.28,5.64,2.42,4.14Z" transform="translate(-8.5 -8.5)"/><path class="cls-4" d="M306.65,222.42a10,10,0,0,1-1.1-9.32,79.37,79.37,0,0,1,17.58-28.91c3.65-3.79,8.92-4.43,13.06-1.19q16.35,12.81,32.49,25.89a9.29,9.29,0,0,1,3.29,8.93c-.8,6-1.61,12-2.25,18.07a3.63,3.63,0,0,0,1.16,2.81,175.85,175.85,0,0,0,65.44,30.74,3.34,3.34,0,0,0,3.79-1.23c3.73-4.21,7.58-8.31,11.36-12.48a10.87,10.87,0,0,1,11-3.7c12.87,2.67,25.77,5.23,38.64,7.9,5.65,1.17,8.9,5.63,8.18,11.28a80.12,80.12,0,0,1-10.83,31.62,10.3,10.3,0,0,1-8.74,5.27A209.33,209.33,0,0,1,394,291.58a210.65,210.65,0,0,1-75-53.88c-2.21-2.46-4.31-5-6.39-7.61S308.63,225,306.65,222.42Z" transform="translate(-8.5 -8.5)"/><path class="cls-4" d="M294.59,949.48c-.23-53.25,44.08-96.32,96.6-96.28,52.95,0,97,43.88,96.49,97.12s-43.48,96.25-96.8,96A96.22,96.22,0,0,1,294.59,949.48ZM391,1033.15c46.09-.34,83-36.9,83.35-83a83.28,83.28,0,1,0-166.55-.41C307.62,995.62,345.23,1033.14,391,1033.15Z" transform="translate(-8.5 -8.5)"/><path class="cls-4" d="M384.56,917.13c0-6.07,0-12.14,0-18.22,0-4.29,2.52-7,6.39-7,4-.07,6.7,2.65,6.72,7.07.05,12.26,0,24.51,0,36.76,0,3.2,4.4,7.54,7.63,7.54,12.36,0,24.72,0,37.08,0a6.41,6.41,0,0,1,6.57,5.18,6.54,6.54,0,0,1-3.92,7.4,11.23,11.23,0,0,1-3.8.51c-11.82,0-23.64,0-35.46,0a5.34,5.34,0,0,0-4.68,2,13,13,0,0,1-19.28.91c-5.6-5.49-5.22-14.11.66-19.63a6.86,6.86,0,0,0,2-4.3C384.68,929.28,384.56,923.2,384.56,917.13Z" transform="translate(-8.5 -8.5)"/><path class="cls-4" d="M774.41,231.16a9.43,9.43,0,0,0-.75-1.8q-5.2-8-10.5-15.86a1.73,1.73,0,0,1,.21-2.57q6.46-6.37,12.85-12.86a1.83,1.83,0,0,1,2.72-.19c5.32,3.55,10.63,7.13,16,10.54a3.93,3.93,0,0,0,3.09.18c6.38-2.5,12.73-5.09,19-7.83A4,4,0,0,0,819,198.2c1.23-6.11,2.29-12.25,3.37-18.38.18-1,.67-1.54,1.71-1.54H842.8c1.27,0,1.65.82,1.84,1.87q1.35,7.59,2.71,15.17c.12.68.23,1.36.33,2.05a4.4,4.4,0,0,0,3.14,3.87c6,2.3,11.84,4.85,17.75,7.31a3.8,3.8,0,0,0,3.9-.37c5.16-3.49,10.39-6.87,15.57-10.33a1.78,1.78,0,0,1,2.6.16q6.52,6.59,13.11,13.1a1.43,1.43,0,0,1,.22,2.12c-3.4,5.08-6.74,10.2-10.16,15.26a4.52,4.52,0,0,0-.6,4.92c2.57,5.79,4.84,11.71,7.21,17.59a4.28,4.28,0,0,0,3.68,2.89c6,.93,11.93,2.08,17.87,3.28a2.37,2.37,0,0,1,1.36,1.78c.11,6.12.06,12.24.08,18.36,0,1.28-.79,1.71-1.82,1.91q-4.25.82-8.5,1.59c-3,.53-6,1.07-9.05,1.53a4.48,4.48,0,0,0-3.73,3.14q-3.6,9.07-7.37,18.08a2.93,2.93,0,0,0,.2,3.07c3.57,5.38,7.07,10.82,10.67,16.17a1.64,1.64,0,0,1-.2,2.51q-6.47,6.38-12.85,12.86a1.8,1.8,0,0,1-2.69.23c-5.27-3.54-10.6-7-15.88-10.49a3.39,3.39,0,0,0-3.55-.23q-8.92,3.75-17.92,7.33a4.39,4.39,0,0,0-3,3.64c-.88,5.35-1.88,10.68-2.79,16-.55,3.18-.66,3.31-3.82,3.3-5.42,0-10.85,0-16.27,0-1.66,0-2.29-.58-2.56-2.24q-1.47-9.06-3.32-18a4.11,4.11,0,0,0-2.16-2.42q-9.52-4.1-19.19-7.87a3.47,3.47,0,0,0-2.71.45q-7.87,5-15.61,10.27c-1.35.91-2.18.93-3.36-.3-4-4.12-8-8.15-12.12-12.13-1.16-1.13-1.35-2-.37-3.38,3.49-5.08,6.81-10.29,10.23-15.42a3.76,3.76,0,0,0,.21-3.79c-2.54-6.18-5.12-12.35-7.64-18.54a3.75,3.75,0,0,0-3.24-2.24c-5-.91-10.11-1.82-15.17-2.65-4.16-.69-4.16-.64-4.17-4.77,0-5.2,0-10.39,0-15.59,0-1.49.46-2.12,2-2.37,6.08-1,12.16-2.11,18.21-3.34a3.87,3.87,0,0,0,2.33-2c2.66-6.13,5.16-12.33,7.69-18.52A17.73,17.73,0,0,0,774.41,231.16Zm92.21,36.94a33.19,33.19,0,1,0-33.08,33.17A33.19,33.19,0,0,0,866.62,268.1Z" transform="translate(-8.5 -8.5)"/><path class="cls-4" d="M764.92,168.34c-16.29,0-27.91,13.43-25.84,28.89a25.19,25.19,0,0,0,20.59,21.66,3.6,3.6,0,0,1,2.06,1.32c2.31,3.31,4.55,6.67,6.69,10.09a3.05,3.05,0,0,1,.24,2.4c-1.93,5-4,10-6,14.9-.55,1.33-4.5,2.78-5.7,2.07a2.07,2.07,0,0,1-.76-1.25c-.43-2-.85-4.07-1.13-6.12a3.48,3.48,0,0,0-2.37-2.91c-4.27-1.74-8.53-3.52-12.84-5.14a3.46,3.46,0,0,0-2.69.28c-3.3,2.11-6.53,4.34-9.69,6.65-1.33,1-2.22,1-3.38-.28-2.27-2.45-4.67-4.79-7.09-7.1-1-.92-1.19-1.65-.35-2.81,2.21-3,4.3-6.14,6.47-9.19a3.79,3.79,0,0,0,.56-4.15c-1.77-4-3.3-8.11-4.94-12.17a3.56,3.56,0,0,0-3.06-2.41c-3.83-.53-7.62-1.28-11.44-1.89a1.71,1.71,0,0,1-1.65-2q0-5.19,0-10.39c0-1.51.93-2,2.17-2.2,3.06-.55,6.12-1.18,9.2-1.61,2.69-.38,4.46-1.44,5.35-4.28a104.22,104.22,0,0,1,4.41-10.89,3.52,3.52,0,0,0-.47-3.84c-2.15-3.08-4.23-6.2-6.47-9.2-.93-1.25-.82-2,.27-3.07,2.51-2.39,5-4.85,7.35-7.34a1.8,1.8,0,0,1,2.72-.21c3.25,2.3,6.55,4.52,9.78,6.83a3.18,3.18,0,0,0,3.41.27c4.15-1.73,8.3-3.45,12.47-5.13a3.39,3.39,0,0,0,2.27-2.77c.68-3.92,1.49-7.82,2.21-11.73a1.58,1.58,0,0,1,1.79-1.46c3.64,0,7.27,0,10.91,0a1.64,1.64,0,0,1,1.85,1.61c.44,3.14,1.13,6.26,1.35,9.42a5.9,5.9,0,0,0,4.46,5.77c3.65,1.25,7.17,2.84,10.74,4.32a3.24,3.24,0,0,0,3.41-.33c3.2-2.28,6.46-4.46,9.64-6.75a1.87,1.87,0,0,1,2.85.23c2.45,2.52,4.95,5,7.47,7.46a1.73,1.73,0,0,1,.21,2.68c-2.34,3.21-4.65,6.46-6.77,9.82a4.13,4.13,0,0,0-.33,3.21c1.63,4.37,3.53,8.64,5.26,13,.69,1.72,2.22,1.86,3.66,2.19,2.64.61,2.65.58,2.2,3.25-.4,2.39-.71,4.8-1.28,7.15a3.27,3.27,0,0,1-1.61,2q-7.45,3.22-15,6.16a3.2,3.2,0,0,1-2.41-.29,36.34,36.34,0,0,1-5-3.35,3.1,3.1,0,0,1-1-2.31c1.18-11.3-3.53-20.66-13.42-26.15A22.7,22.7,0,0,0,764.92,168.34Z" transform="translate(-8.5 -8.5)"/><path class="cls-4" d="M202.76,504.72c2.62.28,5.25.48,7.85.86,15.36,2.23,29.74,7.12,42.47,16.21,16.77,12,27.79,27.82,31.84,48.16a80.59,80.59,0,0,1,.17,29.38,77.72,77.72,0,0,1-13,31.69c-7.86,11.33-17.85,20.2-30.55,25.8a40.84,40.84,0,0,1-16,3.61c-8.61.11-14.91-5.15-16.36-13.73-.2-1.16-.34-2.33-.48-3.31-3.07,2.81-6,5.79-9.23,8.42-6,4.91-12.86,8.37-20.68,9-12.06,1-22.29-3.08-30.27-12.34A40.46,40.46,0,0,1,139,626c-1.35-12,.64-23.55,4.63-34.8,4.4-12.38,11.18-23.26,21.22-31.9a52.86,52.86,0,0,1,33.85-13.36c13-.36,23.5,6.22,28.89,18.13.41.92.81,1.84,1.29,2.93,1.63-4.43,3.21-8.71,4.77-13,1.12-3.09,1.11-3.09,4.41-3.09h12.84a1.62,1.62,0,0,1,.36.12l-4.5,15.29q-6.15,20.82-12.3,41.65c-2.33,7.9-4.68,15.8-6.93,23.73a19.17,19.17,0,0,0-.53,9.54c.72,3.23,2.64,4.66,6,4.67a16,16,0,0,0,9.22-3.28c6.48-4.52,11.21-10.61,15.11-17.36a82.68,82.68,0,0,0,10.6-30.07,64,64,0,0,0-1.11-24.47c-5.36-21.56-18.68-36.37-38.83-45.24a73.3,73.3,0,0,0-34.44-6,74.82,74.82,0,0,0-41.33,15.43,80.94,80.94,0,0,0-26.13,34,86.31,86.31,0,0,0-6.46,26.58,83.26,83.26,0,0,0,4.52,35.42,81.32,81.32,0,0,0,27.91,38,77.22,77.22,0,0,0,34,14.79c21.14,3.65,40.49-1.18,58.43-12.46a71.51,71.51,0,0,0,18.34-16.52,2.59,2.59,0,0,1,2.27-1.15c5,0,10.09,0,15.38,0-1,1.63-1.91,3.23-2.94,4.75-11.45,16.85-26.9,28.53-46,35.43a93.94,93.94,0,0,1-38.38,5.44c-26.92-1.77-49.69-12.43-67.62-32.74a95.11,95.11,0,0,1-22-44.84,98.84,98.84,0,0,1-1.65-28.4,96.56,96.56,0,0,1,74.16-85.81c5.12-1.2,10.41-1.68,15.62-2.49.37-.06.74-.16,1.11-.24Zm-44.62,114.4a56.74,56.74,0,0,0,1.38,7.49c2.18,7.35,6.61,12.83,14.08,15.39,7.11,2.45,13.75.92,20-2.76s11.15-9.21,15.16-15.34a73.31,73.31,0,0,0,11.72-31.68c1.15-9.54-1.82-17.53-9-23.84a17.53,17.53,0,0,0-12.68-4.66c-8.16.45-15,4-20.95,9.47A59.4,59.4,0,0,0,164.48,592,67.19,67.19,0,0,0,158.14,619.12Z" transform="translate(-8.5 -8.5)"/></svg>