<?xml version="1.0" encoding="UTF-8" standalone="no"?>
<!-- Created with Inkscape (http://www.inkscape.org/) -->

<svg
   version="1.1"
   id="svg2"
   xml:space="preserve"
   width="1440"
   height="1440"
   viewBox="0 0 1440 1440"
   sodipodi:docname="LOGO MULTILATINO FINAL.ai"
   xmlns:inkscape="http://www.inkscape.org/namespaces/inkscape"
   xmlns:sodipodi="http://sodipodi.sourceforge.net/DTD/sodipodi-0.dtd"
   xmlns="http://www.w3.org/2000/svg"
   xmlns:svg="http://www.w3.org/2000/svg"><defs
     id="defs6"><clipPath
       clipPathUnits="userSpaceOnUse"
       id="clipPath24"><path
         d="M 0,1080 H 1080 V 0 H 0 Z"
         id="path22" /></clipPath></defs><sodipodi:namedview
     id="namedview4"
     pagecolor="#ffffff"
     bordercolor="#666666"
     borderopacity="1.0"
     inkscape:pageshadow="2"
     inkscape:pageopacity="0.0"
     inkscape:pagecheckerboard="0" /><g
     id="g8"
     inkscape:groupmode="layer"
     inkscape:label="LOGO MULTILATINO FINAL"
     transform="matrix(1.3333333,0,0,-1.3333333,0,1440)"><text
       transform="matrix(1,0,0,-1,183.8677,311.0664)"
       style="font-variant:normal;font-weight:bold;font-stretch:normal;font-size:74.5979px;font-family:Montserrat;-inkscape-font-specification:Montserrat-Bold;writing-mode:lr-tb;fill:#000000;fill-opacity:1;fill-rule:nonzero;stroke:none"
       id="text12"><tspan
         x="0 78.62619 142.10899 187.31532 240.13065 272.05853 299.21219 354.26544 423.34308 481.30566 550.3833 611.03137 663.84674"
         y="0"
         sodipodi:role="line"
         id="tspan10">MULTI SOPORTE</tspan></text><text
       transform="matrix(1,0,0,-1,321.9976,252.2129)"
       style="font-variant:normal;font-weight:bold;font-stretch:normal;font-size:56.8499px;font-family:Montserrat;-inkscape-font-specification:Montserrat-Bold;writing-mode:lr-tb;fill:#000000;fill-opacity:1;fill-rule:nonzero;stroke:none"
       id="text16"><tspan
         x="0 69.86853 146.90015 219.04266 275.26721 359.29138"
         y="0"
         sodipodi:role="line"
         id="tspan14">LATINO</tspan></text><g
       id="g18"><g
         id="g20"
         clip-path="url(#clipPath24)"><g
           id="g26"
           transform="translate(544.5166,869.9932)"><path
             d="m 0,0 -0.607,-231.817 -200.49,116.452 C -160.941,-46.372 -86.19,0.007 -0.607,0.007 -0.405,0.007 -0.203,0.007 0,0"
             style="fill:#ffc400;fill-opacity:1;fill-rule:nonzero;stroke:none"
             id="path28" /></g><g
           id="g30"
           transform="translate(745.0127,753.5815)"><path
             d="m 0,0 -201.104,-115.406 0.608,231.818 C -114.731,116.196 -39.92,69.406 0,0"
             style="fill:#51bf00;fill-opacity:1;fill-rule:nonzero;stroke:none"
             id="path32" /></g><g
           id="g34"
           transform="translate(775.7334,638.1758)"><path
             d="M 0,0 C 0,-42.451 -11.412,-82.235 -31.335,-116.452 L -231.824,0 -30.721,115.406 C -11.176,81.425 0,42.019 0,0"
             style="fill:#00389a;fill-opacity:1;fill-rule:nonzero;stroke:none"
             id="path36" /></g><g
           id="g38"
           transform="translate(744.3984,521.7236)"><path
             d="m 0,0 c -40.156,-68.994 -114.907,-115.372 -200.489,-115.372 -0.203,0 -0.406,0 -0.608,0.007 l 0.608,231.817 z"
             style="fill:#ffc400;fill-opacity:1;fill-rule:nonzero;stroke:none"
             id="path40" /></g><g
           id="g42"
           transform="translate(543.9092,638.1758)"><path
             d="m 0,0 -0.607,-231.817 c -85.766,0.215 -160.577,47.005 -200.497,116.411 z"
             style="fill:#51bf00;fill-opacity:1;fill-rule:nonzero;stroke:none"
             id="path44" /></g><g
           id="g46"
           transform="translate(543.9092,638.1758)"><path
             d="m 0,0 -201.104,-115.406 c -19.544,33.981 -30.721,73.387 -30.721,115.406 0,42.45 11.413,82.235 31.336,116.452 z"
             style="fill:#00389a;fill-opacity:1;fill-rule:nonzero;stroke:none"
             id="path48" /></g><g
           id="g50"
           transform="translate(571.3477,666.8354)"><path
             d="M 0,0 C 0.006,14.965 -12.02,27.191 -26.747,27.193 -41.25,27.195 -53.934,14.583 -53.997,0.094 -54.06,-14.409 -41.508,-26.916 -26.848,-26.957 -11.859,-26.999 -0.006,-15.097 0,0 m -26.903,-80.216 c 13.63,0 27.267,-0.223 40.883,0.205 2.463,0.078 6.731,2.625 6.925,4.388 0.755,6.859 0.897,13.954 -0.015,20.79 -1.526,11.429 -10.919,19.918 -22.104,20.144 -16.961,0.342 -33.938,0.326 -50.9,0.005 -10.708,-0.202 -19.227,-7.23 -21.148,-17.758 -1.232,-6.752 -0.762,-13.804 -1.223,-20.71 -0.371,-5.56 2.321,-7.216 7.527,-7.133 13.349,0.212 26.703,0.071 40.055,0.069 m 88.506,47.103 c -2.428,-49.839 -43.391,-88.323 -91.327,-85.798 -49.278,2.595 -87.908,43.538 -85.683,90.816 2.318,49.242 44.031,88.455 91.572,86.084 48.947,-2.441 87.741,-43.807 85.438,-91.102 m 0,0 c -2.428,-49.839 -43.391,-88.323 -91.327,-85.798 -49.278,2.595 -87.908,43.538 -85.683,90.816 2.318,49.242 44.031,88.455 91.572,86.084 48.947,-2.441 87.741,-43.807 85.438,-91.102"
             style="fill:#ffffff;fill-opacity:1;fill-rule:nonzero;stroke:none"
             id="path52" /></g><g
           id="g54"
           transform="translate(569.7354,665.0093)"><path
             d="M 0,0 C 0.006,14.068 -11.299,25.562 -25.144,25.563 -38.778,25.565 -50.701,13.708 -50.76,0.089 -50.82,-13.545 -39.02,-25.302 -25.238,-25.341 -11.148,-25.38 -0.006,-14.192 0,0 m -25.291,-75.408 c 12.813,0 25.633,-0.21 38.434,0.193 2.315,0.073 6.327,2.467 6.509,4.125 0.71,6.447 0.843,13.117 -0.014,19.544 -1.434,10.744 -10.265,18.724 -20.779,18.936 -15.944,0.322 -31.904,0.307 -47.849,0.005 -10.066,-0.19 -18.075,-6.796 -19.881,-16.693 -1.158,-6.348 -0.716,-12.977 -1.15,-19.47 -0.349,-5.227 2.183,-6.783 7.077,-6.705 12.548,0.199 25.102,0.066 37.653,0.065 m 83.201,44.28 c -2.282,-46.852 -40.79,-83.029 -85.852,-80.657 -46.326,2.44 -82.64,40.93 -80.548,85.374 2.178,46.291 41.392,83.154 86.084,80.925 46.013,-2.295 82.482,-41.182 80.316,-85.642 m 0,0 c -2.282,-46.852 -40.79,-83.029 -85.852,-80.657 -46.326,2.44 -82.64,40.93 -80.548,85.374 2.178,46.291 41.392,83.154 86.084,80.925 46.013,-2.295 82.482,-41.182 80.316,-85.642"
             style="fill:#ff7700;fill-opacity:1;fill-rule:nonzero;stroke:none"
             id="path56" /></g><g
           id="g58"
           transform="translate(544.4443,586.6206)"><path
             d="m 0,0 c -13.352,0 -26.706,0.142 -40.054,-0.07 -5.206,-0.083 -7.899,1.572 -7.528,7.132 0.461,6.907 -0.008,13.959 1.224,20.711 1.92,10.528 10.44,17.556 21.148,17.758 16.961,0.321 33.939,0.337 50.899,-0.005 C 36.874,45.3 46.268,36.811 47.793,25.382 48.705,18.546 48.563,11.451 47.809,4.592 47.614,2.829 43.347,0.282 40.884,0.204 27.268,-0.225 13.63,-0.001 0,0"
             style="fill:#ffffff;fill-opacity:1;fill-rule:nonzero;stroke:none"
             id="path60" /></g><g
           id="g62"
           transform="translate(571.3477,666.8354)"><path
             d="m 0,0 c -0.006,-15.097 -11.859,-26.999 -26.848,-26.957 -14.66,0.041 -27.212,12.548 -27.149,27.051 0.063,14.489 12.747,27.101 27.25,27.099 C -12.02,27.191 0.006,14.965 0,0"
             style="fill:#ffffff;fill-opacity:1;fill-rule:nonzero;stroke:none"
             id="path64" /></g><g
           id="g66"
           transform="translate(571.375,653.2715)"><path
             d="m 0,0 c -1.759,0.4 -1.921,0.604 -1.92,2.406 0.002,6.428 0.003,12.856 0.011,19.284 0.002,1.443 0.486,1.874 1.937,1.927 1.641,0.06 3.188,-0.1 4.426,-1.505 -1.293,11.087 -11.301,25.107 -28.49,26.637 -17.891,1.592 -31.902,-11.384 -34.231,-26.47 0.078,0.009 0.175,-0.01 0.211,0.029 1.4,1.483 3.205,1.397 4.997,1.248 0.797,-0.067 1.197,-0.767 1.197,-1.797 -0.002,-4.972 -0.003,-9.944 -0.004,-14.916 -10e-4,-1.648 0.006,-3.297 -0.006,-4.945 -0.008,-1.263 -0.551,-1.746 -1.818,-1.799 -1.732,-0.073 -3.354,0.092 -4.585,1.522 -0.144,0.168 -0.427,0.228 -0.654,0.314 -1.962,0.743 -3.231,2.445 -3.249,4.525 -0.032,3.626 -0.009,7.252 -0.004,10.878 0.001,0.246 -0.022,0.523 0.077,0.733 0.947,2.002 0.913,4.215 1.372,6.32 2.976,13.675 14.063,24.333 27.848,26.721 C -13.708,54.434 4.372,41.458 7.349,22.229 7.541,20.99 7.586,19.734 8.17,18.568 8.391,18.129 8.396,17.552 8.398,17.037 8.416,13.604 8.415,10.169 8.403,6.736 8.396,4.398 7.21,2.764 5.028,1.867 4.468,1.636 4.054,0.98 3.49,0.835 2.181,0.499 2.063,-0.503 1.809,-1.541 0.023,-8.83 -3.995,-14.555 -10.298,-18.648 c -0.549,-0.356 -0.952,-0.701 -1.075,-1.408 -0.146,-0.834 -0.752,-1.381 -1.537,-1.697 -1.833,-0.737 -3.663,-1.482 -5.505,-2.196 -1.592,-0.617 -3.075,-0.042 -3.64,1.373 -0.581,1.456 0.123,2.901 1.735,3.547 1.758,0.705 3.525,1.388 5.274,2.114 0.907,0.376 1.741,0.336 2.603,-0.142 0.218,-0.122 0.643,-0.109 0.855,0.027 6.082,3.887 9.887,9.387 11.534,16.397 C -0.006,-0.427 -0.017,-0.207 0,0"
             style="fill:#000000;fill-opacity:1;fill-rule:nonzero;stroke:none"
             id="path68" /></g><g
           id="g70"
           transform="translate(684.165,619.1738)"><path
             d="m 0,0 c 0.243,0.163 0.39,0.252 0.527,0.355 2.142,1.601 4.285,3.2 6.421,4.808 0.673,0.506 1.408,0.74 2.26,0.738 7.927,-0.013 15.854,-0.006 23.781,-0.007 1.848,0 2.684,0.833 2.684,2.68 10e-4,11.137 10e-4,22.276 0.002,33.413 0,1.68 -0.874,2.56 -2.562,2.561 -4.518,0.002 -9.037,10e-4 -13.554,10e-4 -9.652,0 -19.303,10e-4 -28.955,-10e-4 -1.611,0 -2.5,-0.892 -2.5,-2.494 0,-11.217 0,-22.434 0.001,-33.651 0,-1.61 0.895,-2.507 2.497,-2.508 2.1,-0.002 4.201,0.001 6.302,-0.002 C -1.261,5.89 -0.012,4.637 -0.001,2.791 0.005,1.901 0,1.012 0,0 m 41.619,38.601 c 1.285,0 2.509,0.012 3.733,-0.003 3.643,-0.043 6.863,-2.478 7.828,-5.984 0.222,-0.809 0.313,-1.678 0.314,-2.52 0.02,-11.278 0.02,-22.555 0.01,-33.833 -0.004,-4.486 -3.679,-8.165 -8.161,-8.202 -1.208,-0.01 -2.417,-0.002 -3.723,-0.002 v -0.644 c -10e-4,-1.705 -0.014,-3.41 0.003,-5.114 0.013,-1.294 -0.514,-2.269 -1.67,-2.848 -1.166,-0.585 -2.255,-0.356 -3.275,0.412 -3.465,2.611 -6.931,5.22 -10.415,7.804 -0.303,0.225 -0.743,0.37 -1.121,0.372 -4.401,0.025 -8.8,0.017 -13.201,0.017 -1.162,0 -2.092,0.443 -2.643,1.491 -0.559,1.063 -0.514,2.146 0.116,3.168 0.543,0.881 1.389,1.277 2.404,1.28 3.647,0.01 7.294,0.005 10.941,0.005 1.188,0 2.379,-0.028 3.566,0.012 0.959,0.032 1.774,-0.247 2.533,-0.825 2.095,-1.597 4.21,-3.166 6.319,-4.745 0.125,-0.093 0.258,-0.174 0.496,-0.335 0,0.806 -0.012,1.523 0.005,2.241 0.01,0.472 -0.003,0.959 0.108,1.411 0.336,1.363 1.452,2.228 2.85,2.237 2.12,0.014 4.24,0.004 6.361,0.006 1.691,0.002 2.568,0.871 2.569,2.55 0.002,5.51 0,11.019 0,16.529 -0.001,5.663 0,11.327 0,16.99 0,1.737 -0.843,2.581 -2.585,2.584 -1.03,0.002 -2.061,0 -3.091,-0.002 -0.059,0 -0.118,-0.011 -0.283,-0.028 V 30.289 C 41.611,22.955 41.631,15.622 41.613,8.288 41.603,3.564 37.954,-0.045 33.228,-0.049 25.656,-0.056 18.085,-0.045 10.515,-0.064 10.153,-0.065 9.731,-0.2 9.442,-0.414 5.925,-3.019 2.43,-5.655 -1.079,-8.272 -2.202,-9.11 -3.42,-9.182 -4.517,-8.5 c -0.93,0.577 -1.409,1.434 -1.422,2.519 -0.023,1.744 -0.007,3.488 -0.007,5.232 v 0.699 c -1.261,0 -2.464,-0.006 -3.667,0.001 -3.711,0.021 -6.972,2.508 -7.927,6.094 -0.191,0.719 -0.292,1.484 -0.293,2.228 -0.017,11.416 -0.014,22.832 -0.008,34.248 0.002,3.763 3.17,7.363 6.911,7.857 0.625,0.082 1.262,0.112 1.894,0.113 5.926,0.008 11.852,0.005 17.778,0.005 8.185,0 16.369,0.007 24.554,-0.004 3.982,-0.005 7.293,-2.62 8.11,-6.519 0.252,-1.203 0.159,-2.48 0.21,-3.723 0.022,-0.53 0.003,-1.06 0.003,-1.649"
             style="fill:#ffffff;fill-opacity:1;fill-rule:nonzero;stroke:none"
             id="path72" /></g><g
           id="g74"
           transform="translate(696.0664,654.8086)"><path
             d="m 0,0 c 4.914,0 9.827,0.001 14.741,-0.001 1.821,-0.001 3.183,-1.281 3.176,-2.977 -0.007,-1.68 -1.387,-2.972 -3.19,-2.972 -9.848,-0.002 -19.695,-0.002 -29.542,0.002 -1.502,0 -2.717,0.929 -3.026,2.281 -0.326,1.427 0.348,2.824 1.718,3.409 0.42,0.18 0.918,0.246 1.381,0.248 C -9.828,0.007 -4.914,0 0,0"
             style="fill:#ffffff;fill-opacity:1;fill-rule:nonzero;stroke:none"
             id="path76" /></g><g
           id="g78"
           transform="translate(696.0742,642.9092)"><path
             d="m 0,0 c 4.913,0 9.825,-0.031 14.737,0.019 1.419,0.015 3.12,-0.95 3.165,-2.999 0.036,-1.693 -1.367,-2.968 -3.189,-2.966 -4.735,0.005 -9.472,0.026 -14.207,0.026 -5.132,0 -10.264,-0.026 -15.396,-0.022 -2.278,0.001 -3.727,2.293 -2.717,4.302 0.555,1.107 1.502,1.641 2.745,1.641 C -9.908,0 -4.954,0 0,0"
             style="fill:#ffffff;fill-opacity:1;fill-rule:nonzero;stroke:none"
             id="path80" /></g><g
           id="g82"
           transform="translate(654.8867,477.7119)"><path
             d="m 0,0 c 3.241,1.813 6.482,3.628 9.725,5.441 1.129,0.633 1.498,2.172 0.858,3.276 -3.604,6.213 -7.208,12.427 -10.812,18.64 l -6.319,10.896 c -0.851,1.469 -1.336,2.274 -2.906,3.044 -6.771,3.317 -14.841,5.078 -21.962,7.516 -6.223,2.128 -12.445,4.257 -18.668,6.387 -1.206,0.413 -2.641,-0.476 -2.944,-1.672 -1.704,-6.711 -3.409,-13.423 -5.113,-20.133 -1.234,-4.863 -2.468,-9.725 -3.704,-14.586 -0.654,-2.58 -1.816,-5.439 -2.055,-8.098 -0.169,-1.876 0.486,-2.777 1.398,-4.379 2.118,-3.721 4.235,-7.44 6.354,-11.16 3.669,-6.445 7.339,-12.891 11.009,-19.337 0.641,-1.125 2.165,-1.503 3.276,-0.858 9.957,5.785 19.915,11.57 29.873,17.355 1.133,0.658 1.49,2.147 0.858,3.275 -2.811,5.025 -5.623,10.048 -8.434,15.073 -0.64,1.143 -2.163,1.481 -3.275,0.858 -4.538,-2.539 -9.076,-5.078 -13.614,-7.618 -2.689,-1.505 -0.278,-5.641 2.416,-4.134 4.538,2.54 9.076,5.079 13.614,7.619 L -23.7,8.264 c 2.811,-5.025 5.623,-10.049 8.434,-15.073 0.287,1.091 0.574,2.183 0.86,3.275 -9.958,-5.785 -19.916,-11.57 -29.873,-17.356 1.091,-0.286 2.182,-0.572 3.274,-0.859 -3.509,6.163 -7.016,12.325 -10.525,18.487 -2.091,3.671 -4.182,7.343 -6.273,11.015 -0.199,0.351 -1.261,2.853 -1.662,2.92 0.569,-0.095 -0.636,-2.288 0.303,-0.752 1.431,2.341 1.675,6.595 2.345,9.233 1.178,4.644 2.358,9.287 3.537,13.931 1.623,6.39 3.245,12.78 4.868,19.171 -0.982,-0.558 -1.963,-1.114 -2.944,-1.672 5.913,-2.023 11.827,-4.047 17.74,-6.07 4.499,-1.54 8.998,-3.079 13.498,-4.619 2.756,-0.943 5.969,-2.62 8.869,-3.036 2.053,-0.294 -0.733,-0.585 -0.403,0.652 -0.115,-0.427 1.3,-2.242 1.513,-2.61 L -3.872,24.097 C -0.432,18.165 3.009,12.232 6.449,6.301 6.735,7.392 7.021,8.483 7.308,9.575 4.066,7.762 0.825,5.947 -2.416,4.134 -5.104,2.629 -2.694,-1.508 0,0"
             style="fill:#ffffff;fill-opacity:1;fill-rule:nonzero;stroke:none"
             id="path84" /></g><g
           id="g86"
           transform="translate(428.939,786.1597)"><path
             d="m 0,0 c -0.759,1.152 -0.887,2.37 -0.433,3.651 1.51,4.255 3.749,8.068 6.891,11.332 1.43,1.484 3.497,1.736 5.12,0.466 4.272,-3.346 8.512,-6.734 12.732,-10.146 1.08,-0.874 1.472,-2.102 1.287,-3.502 -0.311,-2.358 -0.631,-4.717 -0.881,-7.082 -0.037,-0.354 0.178,-0.888 0.457,-1.099 7.7,-5.816 16.272,-9.783 25.645,-12.049 0.668,-0.161 1.057,-0.004 1.487,0.483 1.463,1.65 2.972,3.258 4.453,4.892 1.166,1.286 2.56,1.807 4.295,1.448 5.045,-1.045 10.098,-2.047 15.142,-3.096 2.215,-0.46 3.49,-2.204 3.206,-4.42 -0.566,-4.417 -1.932,-8.566 -4.243,-12.394 -0.789,-1.306 -1.907,-1.972 -3.427,-2.063 -13.014,-0.782 -25.524,1.372 -37.518,6.471 C 22.842,-22.273 13.088,-15.169 4.836,-5.989 3.968,-5.023 3.146,-4.016 2.33,-3.005 1.535,-2.019 0.775,-1.003 0,0"
             style="fill:#ffffff;fill-opacity:1;fill-rule:nonzero;stroke:none"
             id="path88" /></g><g
           id="g90"
           transform="translate(462.0093,468.4131)"><path
             d="M 0,0 C 18.062,0.132 32.546,14.463 32.667,32.509 32.79,50.62 18.044,65.392 -0.076,65.295 -18.133,65.199 -32.529,50.729 -32.611,32.673 -32.692,14.709 -17.95,0.006 0,0 m -37.799,32.791 c -0.089,20.872 17.278,37.75 37.86,37.736 C 20.812,70.513 38.066,53.329 37.88,32.463 37.694,11.584 20.837,-5.261 -0.06,-5.173 -21.103,-5.084 -37.832,11.744 -37.799,32.791"
             style="fill:#ffffff;fill-opacity:1;fill-rule:nonzero;stroke:none"
             id="path92" /></g><g
           id="g94"
           transform="translate(459.4707,513.8838)"><path
             d="M 0,0 C 0,2.38 -0.012,4.76 0.004,7.14 0.016,8.822 0.992,9.878 2.508,9.904 4.083,9.933 5.136,8.864 5.143,7.132 5.163,2.33 5.149,-2.472 5.154,-7.274 c 0.001,-1.254 1.725,-2.954 2.992,-2.955 4.844,-0.003 9.688,0.007 14.533,-0.016 1.35,-0.006 2.318,-0.819 2.573,-2.031 0.25,-1.185 -0.389,-2.468 -1.534,-2.9 -0.458,-0.173 -0.991,-0.196 -1.49,-0.197 -4.632,-0.014 -9.265,-0.022 -13.896,0.005 -0.764,0.004 -1.295,-0.152 -1.837,-0.79 -2.009,-2.367 -5.388,-2.484 -7.557,-0.357 -2.194,2.152 -2.042,5.53 0.26,7.695 0.422,0.396 0.746,1.105 0.767,1.682 C 0.05,-4.761 0,-2.38 0,0"
             style="fill:#ffffff;fill-opacity:1;fill-rule:nonzero;stroke:none"
             id="path96" /></g><g
           id="g98"
           transform="translate(648.4023,768.2568)"><path
             d="M 0,0 C 0.003,7.137 -5.807,12.98 -12.916,12.994 -20.115,13.007 -26.018,7.178 -26.01,0.013 -26.002,-7.24 -20.016,-13.066 -12.962,-13.002 -5.767,-12.938 -0.002,-7.208 0,0 m -36.136,14.477 c -0.088,0.216 -0.15,0.487 -0.294,0.706 -1.363,2.078 -2.734,4.15 -4.118,6.215 -0.255,0.381 -0.265,0.664 0.082,1.006 1.693,1.667 3.373,3.346 5.037,5.04 0.367,0.374 0.67,0.341 1.066,0.077 2.086,-1.394 4.167,-2.793 6.287,-4.133 0.304,-0.192 0.861,-0.205 1.21,-0.069 2.502,0.979 4.99,1.996 7.454,3.067 0.342,0.148 0.679,0.63 0.755,1.01 0.483,2.393 0.898,4.799 1.321,7.204 0.07,0.403 0.261,0.603 0.671,0.603 2.443,-0.002 4.887,-0.002 7.331,0 0.498,10e-4 0.648,-0.322 0.722,-0.736 0.352,-1.981 0.709,-3.962 1.061,-5.943 0.048,-0.267 0.091,-0.535 0.128,-0.804 0.105,-0.757 0.465,-1.221 1.235,-1.518 2.337,-0.902 4.638,-1.901 6.954,-2.862 0.535,-0.222 1.013,-0.207 1.53,0.143 2.02,1.369 4.071,2.693 6.101,4.048 0.378,0.252 0.679,0.278 1.018,-0.063 1.706,-1.718 3.419,-3.428 5.139,-5.132 0.273,-0.271 0.304,-0.507 0.088,-0.831 -1.333,-1.991 -2.642,-3.997 -3.984,-5.983 -0.419,-0.62 -0.576,-1.153 -0.234,-1.926 1.006,-2.27 1.895,-4.592 2.826,-6.895 0.266,-0.658 0.681,-1.012 1.443,-1.131 2.344,-0.366 4.675,-0.818 7.001,-1.289 0.224,-0.045 0.53,-0.453 0.535,-0.698 0.041,-2.397 0.021,-4.795 0.032,-7.193 0.003,-0.503 -0.311,-0.672 -0.713,-0.75 -1.11,-0.216 -2.221,-0.423 -3.334,-0.62 -1.18,-0.21 -2.36,-0.422 -3.544,-0.601 -0.758,-0.113 -1.187,-0.534 -1.463,-1.23 -0.942,-2.372 -1.906,-4.735 -2.89,-7.089 -0.186,-0.445 -0.189,-0.799 0.079,-1.203 1.399,-2.109 2.769,-4.238 4.182,-6.338 0.272,-0.403 0.263,-0.647 -0.078,-0.982 -1.691,-1.667 -3.37,-3.348 -5.039,-5.039 -0.352,-0.356 -0.635,-0.371 -1.054,-0.09 -2.064,1.385 -4.154,2.732 -6.221,4.112 -0.47,0.313 -0.882,0.301 -1.394,0.086 -2.331,-0.979 -4.675,-1.929 -7.022,-2.869 -0.672,-0.269 -1.057,-0.7 -1.178,-1.428 -0.348,-2.097 -0.738,-4.186 -1.096,-6.281 -0.213,-1.245 -0.258,-1.294 -1.494,-1.293 -2.127,0.001 -4.254,0.012 -6.38,-0.017 -0.651,-0.009 -0.895,0.225 -1.001,0.878 -0.386,2.364 -0.815,4.723 -1.304,7.069 -0.076,0.366 -0.485,0.794 -0.846,0.949 -2.489,1.072 -4.998,2.096 -7.522,3.083 -0.292,0.115 -0.778,0.008 -1.061,-0.173 -2.058,-1.313 -4.099,-2.652 -6.117,-4.025 -0.529,-0.36 -0.854,-0.368 -1.319,0.116 -1.551,1.615 -3.14,3.194 -4.747,4.755 -0.455,0.442 -0.528,0.765 -0.146,1.322 1.368,1.994 2.67,4.034 4.01,6.046 0.329,0.494 0.29,0.98 0.082,1.484 -0.997,2.423 -2.006,4.84 -2.994,7.267 -0.24,0.593 -0.723,0.778 -1.271,0.876 -1.98,0.356 -3.96,0.714 -5.945,1.041 -1.629,0.269 -1.632,0.251 -1.633,1.868 -10e-4,2.037 0.01,4.073 -0.017,6.109 -0.008,0.584 0.181,0.832 0.783,0.932 2.386,0.396 4.767,0.824 7.136,1.309 0.351,0.071 0.769,0.444 0.915,0.783 1.041,2.403 2.022,4.832 3.016,7.257 0.092,0.227 0.138,0.474 0.223,0.773"
             style="fill:#ffffff;fill-opacity:1;fill-rule:nonzero;stroke:none"
             id="path100" /></g><g
           id="g102"
           transform="translate(608.5449,807.356)"><path
             d="m 0,0 c -6.382,-0.019 -10.938,-5.265 -10.128,-11.326 0.582,-4.342 3.795,-7.706 8.07,-8.488 0.295,-0.054 0.635,-0.272 0.807,-0.518 0.906,-1.295 1.785,-2.612 2.624,-3.952 0.153,-0.244 0.198,-0.674 0.095,-0.941 -0.759,-1.959 -1.562,-3.9 -2.364,-5.841 -0.216,-0.522 -1.766,-1.089 -2.234,-0.812 -0.147,0.087 -0.261,0.311 -0.299,0.491 -0.17,0.795 -0.333,1.594 -0.444,2.398 -0.082,0.594 -0.418,0.934 -0.93,1.142 -1.672,0.682 -3.339,1.379 -5.03,2.012 -0.302,0.113 -0.783,0.066 -1.054,-0.106 -1.293,-0.828 -2.558,-1.702 -3.799,-2.607 -0.522,-0.381 -0.867,-0.386 -1.324,0.107 -0.889,0.962 -1.832,1.879 -2.78,2.785 -0.375,0.358 -0.466,0.646 -0.135,1.098 0.866,1.186 1.684,2.408 2.534,3.606 0.364,0.512 0.505,0.982 0.221,1.626 -0.693,1.569 -1.293,3.179 -1.936,4.769 -0.218,0.538 -0.575,0.856 -1.202,0.943 -1.499,0.209 -2.986,0.503 -4.481,0.741 -0.473,0.076 -0.65,0.316 -0.647,0.78 0.012,1.357 0.01,2.714 -0.003,4.072 -0.006,0.591 0.365,0.777 0.848,0.864 1.202,0.216 2.4,0.461 3.608,0.63 1.054,0.148 1.746,0.566 2.097,1.676 0.463,1.459 1.099,2.868 1.73,4.268 0.265,0.59 0.14,1.038 -0.187,1.508 -0.841,1.204 -1.656,2.428 -2.534,3.605 -0.365,0.49 -0.323,0.799 0.104,1.204 0.983,0.934 1.94,1.898 2.882,2.874 0.36,0.371 0.667,0.364 1.064,0.083 1.273,-0.9 2.566,-1.771 3.835,-2.677 0.445,-0.319 0.866,-0.304 1.338,-0.107 1.625,0.678 3.251,1.354 4.883,2.013 0.508,0.206 0.793,0.531 0.89,1.085 0.27,1.537 0.585,3.064 0.866,4.598 0.076,0.416 0.31,0.571 0.703,0.571 1.425,-0.003 2.851,-0.002 4.276,-10e-4 0.426,0 0.665,-0.181 0.726,-0.629 C 2.86,12.313 3.132,11.09 3.219,9.854 3.304,8.655 3.832,7.98 4.968,7.591 6.396,7.102 7.778,6.475 9.176,5.896 c 0.478,-0.198 0.9,-0.181 1.338,0.132 1.251,0.891 2.529,1.744 3.775,2.643 0.434,0.312 0.745,0.295 1.116,-0.088 0.961,-0.99 1.941,-1.962 2.93,-2.924 0.356,-0.347 0.39,-0.627 0.083,-1.05 C 17.501,3.349 16.596,2.076 15.766,0.758 15.56,0.432 15.499,-0.14 15.634,-0.5 c 0.64,-1.713 1.385,-3.386 2.063,-5.085 0.271,-0.676 0.869,-0.732 1.433,-0.861 1.036,-0.239 1.04,-0.227 0.864,-1.274 -0.157,-0.936 -0.279,-1.881 -0.501,-2.801 -0.072,-0.299 -0.354,-0.658 -0.632,-0.778 -1.947,-0.843 -3.913,-1.647 -5.89,-2.417 -0.266,-0.103 -0.686,-0.03 -0.947,0.116 -0.687,0.385 -1.358,0.818 -1.97,1.312 -0.231,0.187 -0.422,0.612 -0.392,0.904 0.461,4.431 -1.384,8.097 -5.26,10.251 C 2.955,-0.329 1.37,0.026 0,0"
             style="fill:#ffffff;fill-opacity:1;fill-rule:nonzero;stroke:none"
             id="path104" /></g><g
           id="g106"
           transform="translate(370.7324,630.6807)"><path
             d="m 0,0 c 0.108,-0.615 0.206,-1.809 0.539,-2.933 0.857,-2.881 2.593,-5.028 5.522,-6.034 2.787,-0.957 5.386,-0.359 7.834,1.083 2.502,1.475 4.369,3.611 5.941,6.013 2.476,3.786 4.048,7.911 4.592,12.416 0.451,3.737 -0.714,6.871 -3.544,9.342 -1.405,1.226 -3.087,1.934 -4.969,1.829 C 12.72,21.538 10.033,20.143 7.705,18.001 5.44,15.917 3.785,13.397 2.485,10.632 0.987,7.446 0.146,4.095 0,0 m 17.488,44.836 c 1.026,-0.109 2.056,-0.185 3.076,-0.334 6.021,-0.876 11.655,-2.791 16.647,-6.356 6.57,-4.691 10.891,-10.903 12.477,-18.875 0.759,-3.816 0.717,-7.669 0.067,-11.516 -0.765,-4.527 -2.492,-8.66 -5.1,-12.419 -3.079,-4.438 -6.995,-7.914 -11.973,-10.108 -1.998,-0.881 -4.088,-1.39 -6.286,-1.418 -3.375,-0.043 -5.844,2.019 -6.413,5.383 -0.077,0.454 -0.132,0.913 -0.188,1.298 -1.201,-1.105 -2.351,-2.272 -3.614,-3.301 -2.363,-1.924 -5.042,-3.28 -8.108,-3.524 -4.726,-0.375 -8.734,1.207 -11.862,4.836 -2.183,2.534 -3.347,5.519 -3.718,8.806 -0.528,4.689 0.252,9.23 1.817,13.639 1.723,4.853 4.382,9.116 8.317,12.504 3.809,3.279 8.213,5.094 13.267,5.235 5.108,0.141 9.21,-2.437 11.32,-7.106 0.162,-0.359 0.319,-0.72 0.508,-1.147 0.637,1.736 1.256,3.413 1.867,5.091 0.44,1.209 0.436,1.211 1.729,1.21 1.678,-0.001 3.356,-0.002 5.034,-0.004 0.035,-0.001 0.069,-0.022 0.14,-0.047 C 35.904,24.687 35.318,22.689 34.729,20.692 33.122,15.251 31.511,9.811 29.907,4.369 28.993,1.271 28.074,-1.826 27.191,-4.932 26.845,-6.153 26.7,-7.414 26.983,-8.671 c 0.285,-1.268 1.037,-1.829 2.337,-1.831 1.356,-0.002 2.531,0.531 3.613,1.286 2.541,1.771 4.395,4.156 5.923,6.805 2.115,3.665 3.566,7.575 4.156,11.782 0.452,3.223 0.344,6.435 -0.439,9.591 -2.097,8.451 -7.318,14.255 -15.219,17.732 -4.3,1.893 -8.823,2.639 -13.495,2.352 -6.001,-0.367 -11.4,-2.424 -16.199,-6.048 -4.636,-3.5 -8.002,-7.982 -10.241,-13.317 -1.398,-3.332 -2.236,-6.807 -2.532,-10.417 -0.389,-4.758 0.154,-9.392 1.773,-13.885 2.177,-6.041 5.818,-11.022 10.938,-14.901 3.964,-3.004 8.402,-4.949 13.31,-5.796 8.284,-1.429 15.868,0.464 22.9,4.883 2.764,1.738 5.167,3.902 7.189,6.474 0.241,0.306 0.486,0.455 0.889,0.451 1.976,-0.019 3.953,-0.009 6.028,-0.009 -0.394,-0.64 -0.748,-1.268 -1.152,-1.862 -4.487,-6.603 -10.544,-11.181 -18.03,-13.887 -4.861,-1.756 -9.897,-2.47 -15.042,-2.131 -10.551,0.694 -19.474,4.871 -26.502,12.833 -4.463,5.056 -7.296,10.958 -8.633,17.573 -0.743,3.68 -0.979,7.393 -0.647,11.128 0.769,8.656 4.08,16.22 10.01,22.575 5.223,5.596 11.6,9.298 19.054,11.056 2.006,0.473 4.08,0.66 6.122,0.979 0.146,0.023 0.289,0.06 0.434,0.091 z"
             style="fill:#ffffff;fill-opacity:1;fill-rule:nonzero;stroke:none"
             id="path108" /></g></g></g></g></svg>
